<?xml version="1.0" standalone="no"?>
<!DOCTYPE svg PUBLIC "-//W3C//DTD SVG 20010904//EN"
 "http://www.w3.org/TR/2001/REC-SVG-20010904/DTD/svg10.dtd">
<svg version="1.0" xmlns="http://www.w3.org/2000/svg"
 width="96.000000pt" height="96.000000pt" viewBox="0 0 96.000000 96.000000"
 preserveAspectRatio="xMidYMid meet">

<g transform="translate(0.000000,96.000000) scale(0.100000,-0.100000)"
fill="#000000" stroke="none">
<path d="M383 865 c-159 -43 -265 -159 -295 -325 -22 -116 23 -252 112 -340
88 -89 224 -134 340 -112 178 33 299 154 332 332 22 115 -23 252 -110 339 -56
56 -107 85 -189 106 -70 18 -121 18 -190 0z m152 -330 c16 -15 25 -36 25 -55
0 -19 -9 -40 -25 -55 -15 -16 -36 -25 -55 -25 -19 0 -40 9 -55 25 -16 15 -25
36 -25 55 0 19 9 40 25 55 15 16 36 25 55 25 19 0 40 -9 55 -25z m-160 -105
c19 -36 70 -70 105 -70 35 0 86 34 105 70 l16 30 120 0 121 0 -7 -42 c-12 -70
-52 -142 -110 -197 -79 -75 -129 -94 -245 -95 -84 -1 -101 2 -150 26 -104 51
-190 162 -206 266 l-7 42 121 0 121 0 16 -30z"/>
<path d="M456 504 c-21 -21 -20 -41 3 -54 38 -20 71 13 51 51 -13 23 -33 24
-54 3z"/>
</g>
</svg>
